<mxfile host="app.diagrams.net" modified="2022-09-23T03:19:06.411Z" agent="5.0 (Macintosh; Intel Mac OS X 10_15_7) AppleWebKit/537.36 (KHTML, like Gecko) Chrome/105.0.0.0 Safari/537.36" etag="1aRxdubqifZVx5DygCIo" version="20.3.3" type="github">
  <diagram id="awbKIZQKXA_6XqNhvoPY" name="第 1 页">
    <mxGraphModel dx="930" dy="528" grid="1" gridSize="10" guides="1" tooltips="1" connect="1" arrows="1" fold="1" page="1" pageScale="1" pageWidth="827" pageHeight="1169" math="0" shadow="0">
      <root>
        <mxCell id="0" />
        <mxCell id="1" parent="0" />
        <mxCell id="vbVHcU2QwuVIv3XMYrbV-3" style="edgeStyle=orthogonalEdgeStyle;rounded=0;orthogonalLoop=1;jettySize=auto;html=1;exitX=1;exitY=0.5;exitDx=0;exitDy=0;entryX=0;entryY=0.5;entryDx=0;entryDy=0;" edge="1" parent="1" source="vbVHcU2QwuVIv3XMYrbV-1" target="vbVHcU2QwuVIv3XMYrbV-2">
          <mxGeometry relative="1" as="geometry" />
        </mxCell>
        <mxCell id="vbVHcU2QwuVIv3XMYrbV-19" style="edgeStyle=orthogonalEdgeStyle;rounded=0;orthogonalLoop=1;jettySize=auto;html=1;exitX=0.75;exitY=0;exitDx=0;exitDy=0;entryX=0.25;entryY=0;entryDx=0;entryDy=0;" edge="1" parent="1" source="vbVHcU2QwuVIv3XMYrbV-1" target="vbVHcU2QwuVIv3XMYrbV-4">
          <mxGeometry relative="1" as="geometry">
            <Array as="points">
              <mxPoint x="290" y="160" />
              <mxPoint x="560" y="160" />
            </Array>
          </mxGeometry>
        </mxCell>
        <mxCell id="vbVHcU2QwuVIv3XMYrbV-1" value="用户请求" style="rounded=1;whiteSpace=wrap;html=1;" vertex="1" parent="1">
          <mxGeometry x="200" y="180" width="120" height="60" as="geometry" />
        </mxCell>
        <mxCell id="vbVHcU2QwuVIv3XMYrbV-5" style="edgeStyle=orthogonalEdgeStyle;rounded=0;orthogonalLoop=1;jettySize=auto;html=1;exitX=1;exitY=0.25;exitDx=0;exitDy=0;entryX=0;entryY=0.25;entryDx=0;entryDy=0;" edge="1" parent="1" source="vbVHcU2QwuVIv3XMYrbV-2" target="vbVHcU2QwuVIv3XMYrbV-4">
          <mxGeometry relative="1" as="geometry" />
        </mxCell>
        <mxCell id="vbVHcU2QwuVIv3XMYrbV-2" value="前端域名" style="rounded=1;whiteSpace=wrap;html=1;" vertex="1" parent="1">
          <mxGeometry x="370" y="180" width="120" height="60" as="geometry" />
        </mxCell>
        <mxCell id="vbVHcU2QwuVIv3XMYrbV-6" style="edgeStyle=orthogonalEdgeStyle;rounded=0;orthogonalLoop=1;jettySize=auto;html=1;exitX=0;exitY=0.75;exitDx=0;exitDy=0;entryX=1;entryY=0.75;entryDx=0;entryDy=0;" edge="1" parent="1" source="vbVHcU2QwuVIv3XMYrbV-4" target="vbVHcU2QwuVIv3XMYrbV-2">
          <mxGeometry relative="1" as="geometry" />
        </mxCell>
        <mxCell id="vbVHcU2QwuVIv3XMYrbV-11" style="edgeStyle=orthogonalEdgeStyle;rounded=0;orthogonalLoop=1;jettySize=auto;html=1;exitX=1;exitY=0.25;exitDx=0;exitDy=0;" edge="1" parent="1" source="vbVHcU2QwuVIv3XMYrbV-4">
          <mxGeometry relative="1" as="geometry">
            <mxPoint x="710" y="195" as="targetPoint" />
          </mxGeometry>
        </mxCell>
        <mxCell id="vbVHcU2QwuVIv3XMYrbV-15" style="edgeStyle=orthogonalEdgeStyle;rounded=0;orthogonalLoop=1;jettySize=auto;html=1;exitX=0.5;exitY=0;exitDx=0;exitDy=0;entryX=0;entryY=0.5;entryDx=0;entryDy=0;" edge="1" parent="1" source="vbVHcU2QwuVIv3XMYrbV-1" target="vbVHcU2QwuVIv3XMYrbV-7">
          <mxGeometry relative="1" as="geometry">
            <Array as="points">
              <mxPoint x="260" y="110" />
              <mxPoint x="720" y="110" />
            </Array>
          </mxGeometry>
        </mxCell>
        <mxCell id="vbVHcU2QwuVIv3XMYrbV-4" value="CLB" style="rounded=1;whiteSpace=wrap;html=1;" vertex="1" parent="1">
          <mxGeometry x="530" y="180" width="120" height="60" as="geometry" />
        </mxCell>
        <mxCell id="vbVHcU2QwuVIv3XMYrbV-16" style="edgeStyle=orthogonalEdgeStyle;rounded=0;orthogonalLoop=1;jettySize=auto;html=1;exitX=0;exitY=0.5;exitDx=0;exitDy=0;entryX=0.5;entryY=0;entryDx=0;entryDy=0;" edge="1" parent="1" source="vbVHcU2QwuVIv3XMYrbV-7" target="vbVHcU2QwuVIv3XMYrbV-4">
          <mxGeometry relative="1" as="geometry" />
        </mxCell>
        <mxCell id="vbVHcU2QwuVIv3XMYrbV-7" value="华北机房" style="rounded=1;whiteSpace=wrap;html=1;" vertex="1" parent="1">
          <mxGeometry x="720" y="80" width="120" height="60" as="geometry" />
        </mxCell>
        <mxCell id="vbVHcU2QwuVIv3XMYrbV-8" value="北中机房" style="rounded=1;whiteSpace=wrap;html=1;" vertex="1" parent="1">
          <mxGeometry x="720" y="170" width="120" height="60" as="geometry" />
        </mxCell>
        <mxCell id="vbVHcU2QwuVIv3XMYrbV-9" value="华南机房" style="rounded=1;whiteSpace=wrap;html=1;" vertex="1" parent="1">
          <mxGeometry x="720" y="260" width="120" height="60" as="geometry" />
        </mxCell>
        <mxCell id="vbVHcU2QwuVIv3XMYrbV-10" value="" style="endArrow=none;dashed=1;html=1;dashPattern=1 3;strokeWidth=2;rounded=0;" edge="1" parent="1">
          <mxGeometry width="50" height="50" relative="1" as="geometry">
            <mxPoint x="850" y="60" as="sourcePoint" />
            <mxPoint x="850" y="60" as="targetPoint" />
            <Array as="points">
              <mxPoint x="780" y="60" />
              <mxPoint x="710" y="60" />
              <mxPoint x="710" y="340" />
              <mxPoint x="850" y="340" />
            </Array>
          </mxGeometry>
        </mxCell>
        <mxCell id="vbVHcU2QwuVIv3XMYrbV-12" style="edgeStyle=orthogonalEdgeStyle;rounded=0;orthogonalLoop=1;jettySize=auto;html=1;entryX=1;entryY=0.75;entryDx=0;entryDy=0;" edge="1" parent="1" target="vbVHcU2QwuVIv3XMYrbV-4">
          <mxGeometry relative="1" as="geometry">
            <mxPoint x="720" y="205" as="targetPoint" />
            <mxPoint x="710" y="225" as="sourcePoint" />
          </mxGeometry>
        </mxCell>
        <mxCell id="vbVHcU2QwuVIv3XMYrbV-13" value="第一次请求获取Cookie,拿到IP，根据权重选择后段服务器" style="text;html=1;strokeColor=none;fillColor=none;align=center;verticalAlign=middle;whiteSpace=wrap;rounded=0;" vertex="1" parent="1">
          <mxGeometry x="560" y="70" width="120" height="30" as="geometry" />
        </mxCell>
        <mxCell id="vbVHcU2QwuVIv3XMYrbV-14" value="解析IP,就近分配" style="text;html=1;strokeColor=none;fillColor=none;align=center;verticalAlign=middle;whiteSpace=wrap;rounded=0;" vertex="1" parent="1">
          <mxGeometry x="540" y="560" width="70" height="30" as="geometry" />
        </mxCell>
        <mxCell id="vbVHcU2QwuVIv3XMYrbV-18" value="第二次请求，Cookie保持会话，根据地域就近选择后端服务器" style="text;html=1;strokeColor=none;fillColor=none;align=center;verticalAlign=middle;whiteSpace=wrap;rounded=0;" vertex="1" parent="1">
          <mxGeometry x="340" y="130" width="200" height="30" as="geometry" />
        </mxCell>
        <mxCell id="vbVHcU2QwuVIv3XMYrbV-20" value="" style="endArrow=classic;html=1;rounded=0;" edge="1" parent="1">
          <mxGeometry width="50" height="50" relative="1" as="geometry">
            <mxPoint x="560" y="160" as="sourcePoint" />
            <mxPoint x="710" y="160" as="targetPoint" />
          </mxGeometry>
        </mxCell>
      </root>
    </mxGraphModel>
  </diagram>
</mxfile>
